<svg width="49" height="22" viewBox="0 0 49 22" xmlns="http://www.w3.org/2000/svg" xmlns:xlink="http://www.w3.org/1999/xlink"><title>logo-id</title><defs><path id="a" d="M11.148 0v.038H4.856V0H1.74v.038h-.393C.602.038 0 .643 0 1.389v9.257A1.35 1.35 0 0 0 1.346 12h13.308A1.35 1.35 0 0 0 16 10.646V1.389c0-.746-.602-1.351-1.346-1.351h-.393V0h-3.113z"/></defs><g fill="none" fill-rule="evenodd"><path d="M32.104 18V3.326H28.32V18h3.784zm8.822 0c4.598 0 7.92-2.794 7.92-7.348s-3.322-7.326-7.942-7.326h-6.16V18h6.182zm-.022-3.3h-2.376V6.626h2.398c2.684 0 4.048 1.76 4.048 4.026 0 2.178-1.496 4.048-4.07 4.048z" fill="#FFF"/><path d="M7.995 3.262a3.117 3.117 0 0 1 3.114 3.113V8h3.082V6.375A6.202 6.202 0 0 0 7.995.18 6.202 6.202 0 0 0 1.8 6.375V10h3.082V6.375a3.119 3.119 0 0 1 3.114-3.113z" fill="#9ABAC1"/><g transform="translate(0 10)"><mask id="b" fill="#fff"><use xlink:href="#a"/></mask><use fill="#4290E1" xlink:href="#a"/><g mask="url(#b)"><path fill="#D8D8D8" d="M-1-3h6v6h-6z"/><path fill="#C5CEE5" d="M5-3h6v6H5z"/><path fill="#FFF" d="M11-3h6v6h-6z"/><path fill="#DBE0EC" d="M11 3h6v6h-6z"/><path fill="#768CC0" d="M5 3h6v6H5z"/><path fill="#94A5CF" d="M-1 3h6v6h-6z"/><path fill="#D2DAE6" d="M-1 9h6v6h-6z"/><path fill="#BDC8E1" d="M5 9h6v6H5z"/><path fill="#FFF" d="M11 9h6v6h-6z"/><path fill="#A2B2D3" d="M-1-3h6v6h-6z"/></g></g></g></svg>