<?xml version="1.0" encoding="UTF-8" standalone="no"?>
<svg width="49px" height="22px" viewBox="0 0 49 22" version="1.1" xmlns="http://www.w3.org/2000/svg" xmlns:xlink="http://www.w3.org/1999/xlink">
    <!-- Generator: Sketch 3.6 (26304) - http://www.bohemiancoding.com/sketch -->
    <title>logo-id</title>
    <desc>Created with Sketch.</desc>
    <defs>
        <path id="path-1" d="M11.1484995,0 L11.1484995,0.0375469091 L4.85647644,0.0375469091 L4.85647644,0 L1.73907635,0 L1.73907635,0.0375469091 L1.34598041,0.0375469091 C0.602083657,0.0375469091 0,0.643304182 0,1.38923651 L0,10.6458073 C0,11.3917396 0.602083657,12 1.34598041,12 L14.6540196,12 C15.3979163,12 16,11.3942428 16,10.6458073 L16,1.38923651 C16,0.643304182 15.3979163,0.0375469091 14.6540196,0.0375469091 L14.2609237,0.0375469091 L14.2609237,0 L11.1484995,0 L11.1484995,0 L11.1484995,0 Z"></path>
    </defs>
    <g id="Page-1" stroke="none" stroke-width="1" fill="none" fill-rule="evenodd">
        <g id="logo-id">
            <path d="M32.104,18 L32.104,3.326 L28.32,3.326 L28.32,18 L32.104,18 L32.104,18 Z M40.926,18 C45.524,18 48.846,15.206 48.846,10.652 C48.846,6.098 45.524,3.326 40.904,3.326 L34.744,3.326 L34.744,18 L40.926,18 L40.926,18 Z M40.904,14.7 L38.528,14.7 L38.528,6.626 L40.926,6.626 C43.61,6.626 44.974,8.386 44.974,10.652 C44.974,12.83 43.478,14.7 40.904,14.7 L40.904,14.7 L40.904,14.7 Z" id="ID" fill="#FFFFFF"></path>
            <path d="M7.99507692,3.26153846 C9.71076923,3.26153846 11.1089231,4.65723077 11.1089231,6.37538462 L11.1089231,8 L14.1907692,8 L14.1907692,6.37538462 C14.1907692,2.95876923 11.4116923,0.179692308 7.99507692,0.179692308 C4.57846154,0.179692308 1.79938462,2.95876923 1.79938462,6.37538462 L1.79938462,10 L4.88123077,10 L4.88123077,6.37538462 C4.88369231,4.65723077 6.27938462,3.26153846 7.99507692,3.26153846 L7.99507692,3.26153846 Z" id="Shape" fill="#9ABAC1"></path>
            <g id="Rectangle-1-+-Rectangle-2-+-Rectangle-3-+-Rectangle-5-+-Rectangle-6-+-Rectangle-7-+-Rectangle-8-+-Rectangle-9-+-Rectangle-10-+-Rectangle-4-Mask" transform="translate(0.000000, 10.000000)">
                <mask id="mask-2" fill="white">
                    <use xlink:href="#path-1"></use>
                </mask>
                <use id="Mask" fill="#4290E1" xlink:href="#path-1"></use>
                <g id="Group-2" mask="url(#mask-2)">
                    <g transform="translate(-1.000000, -3.000000)">
                        <rect id="Rectangle-1" fill="#D8D8D8" x="0" y="0" width="6" height="6"></rect>
                        <rect id="Rectangle-2" fill="#C5CEE5" x="6" y="0" width="6" height="6"></rect>
                        <rect id="Rectangle-3" fill="#FFFFFF" x="12" y="0" width="6" height="6"></rect>
                        <rect id="Rectangle-5" fill="#DBE0EC" x="12" y="6" width="6" height="6"></rect>
                        <rect id="Rectangle-6" fill="#768CC0" x="6" y="6" width="6" height="6"></rect>
                        <rect id="Rectangle-7" fill="#94A5CF" x="0" y="6" width="6" height="6"></rect>
                        <rect id="Rectangle-8" fill="#D2DAE6" x="0" y="12" width="6" height="6"></rect>
                        <rect id="Rectangle-9" fill="#BDC8E1" x="6" y="12" width="6" height="6"></rect>
                        <rect id="Rectangle-10" fill="#FFFFFF" x="12" y="12" width="6" height="6"></rect>
                        <rect id="Rectangle-4" fill="#A2B2D3" x="0" y="0" width="6" height="6"></rect>
                    </g>
                </g>
            </g>
        </g>
    </g>
</svg>